<svg width="180" height="46" viewBox="0 0 180 46" fill="none" xmlns="http://www.w3.org/2000/svg">
<path d="M22.1319 36.4162L0.776005 24.0796C0.426758 23.8857 -9.91821e-05 24.1314 -9.91821e-05 24.5322V33.3902C-9.91821e-05 33.8945 0.271538 34.3471 0.698395 34.6058L18.7041 45.0026C19.1309 45.2483 19.6742 45.2483 20.101 45.0026L24.8094 42.287V42.274L30.6302 38.9119V38.9249L34.9376 36.4421C38.4689 34.3989 38.6888 29.3299 35.2869 27.0798C35.2092 27.0281 35.1446 26.9893 35.067 26.9375L11.9131 13.5536C11.9002 13.5407 11.8743 13.5277 11.8614 13.5148C9.14502 11.9242 9.18382 7.99312 11.9131 6.4155L13.9957 5.21289C14.0862 7.02327 15.0822 8.67848 16.6732 9.58367L38.0291 21.9072C38.3783 22.1012 38.8052 21.8554 38.8052 21.4546L38.8052 12.6096C38.8052 12.1053 38.5336 11.6527 38.1067 11.3941L20.101 0.997271C19.6742 0.751568 19.1309 0.751568 18.7041 0.997271L16.6215 2.19989L6.01472 8.3164L3.75108 9.6354C0.219799 11.6785 0.0516396 16.7864 3.53118 18.946C3.59586 18.9848 3.67347 19.0365 3.73814 19.0753L26.9049 32.4463C26.9178 32.4593 26.9437 32.4722 26.9567 32.4851C29.6601 34.0756 29.6213 38.0067 26.9049 39.5715L24.8094 40.787C24.7059 38.9637 23.7099 37.3214 22.1319 36.4162Z" fill="#268FCA"/>
<path d="M57.2932 18.5088C56.1566 18.5088 55.0922 18.4208 54.0997 18.2447C53.1233 18.0847 52.2589 17.8045 51.5066 17.4044C50.7703 16.9882 50.186 16.4199 49.7538 15.6996C49.3376 14.9633 49.1295 14.0429 49.1295 12.9384C49.1295 12.9064 49.1295 12.8663 49.1295 12.8183C49.1295 12.7543 49.1375 12.6903 49.1535 12.6262H54.1718C54.1558 12.6903 54.1478 12.7543 54.1478 12.8183C54.1478 12.8663 54.1478 12.9144 54.1478 12.9624C54.1478 13.4426 54.2598 13.8108 54.4839 14.0669C54.708 14.323 55.0201 14.4991 55.4203 14.5951C55.8365 14.6751 56.3007 14.7152 56.8129 14.7152C57.005 14.7152 57.2051 14.7152 57.4132 14.7152C57.6373 14.6992 57.8454 14.6751 58.0375 14.6431C58.2456 14.5951 58.4297 14.5311 58.5897 14.451C58.7658 14.371 58.9019 14.267 58.9979 14.1389C59.094 13.9948 59.142 13.8188 59.142 13.6107C59.142 13.3065 59.0059 13.0664 58.7338 12.8904C58.4617 12.7143 58.0935 12.5622 57.6293 12.4341C57.1651 12.3061 56.6449 12.186 56.0686 12.074C55.4924 11.9619 54.8921 11.8339 54.2678 11.6898C53.6435 11.5297 53.0433 11.3297 52.467 11.0896C51.8908 10.8494 51.3705 10.5453 50.9063 10.1771C50.4421 9.79298 50.074 9.32077 49.8018 8.76052C49.5297 8.18426 49.3936 7.49596 49.3936 6.6956C49.3936 5.73518 49.5937 4.91882 49.9939 4.24652C50.3941 3.57422 50.9383 3.02998 51.6266 2.61379C52.331 2.19761 53.1233 1.89347 54.0037 1.70139C54.9001 1.5093 55.8365 1.41326 56.8129 1.41326C57.8054 1.41326 58.7338 1.51731 59.5982 1.7254C60.4786 1.91748 61.2549 2.22162 61.9272 2.6378C62.5995 3.05399 63.1277 3.58222 63.5119 4.22251C63.8961 4.86279 64.0962 5.62313 64.1122 6.50352V6.79165H59.142V6.6956C59.142 6.40748 59.0699 6.13536 58.9259 5.87924C58.7818 5.62313 58.5497 5.41504 58.2296 5.25496C57.9254 5.09489 57.5173 5.01486 57.005 5.01486C56.5248 5.01486 56.1166 5.06288 55.7805 5.15892C55.4603 5.25496 55.2202 5.39102 55.0602 5.5671C54.9001 5.72717 54.8201 5.90325 54.8201 6.09534C54.8201 6.39947 54.9561 6.64758 55.2282 6.83967C55.5004 7.03175 55.8685 7.19182 56.3327 7.31988C56.7969 7.44794 57.3172 7.56799 57.8934 7.68004C58.4697 7.79209 59.0699 7.92015 59.6942 8.06421C60.3185 8.19227 60.9188 8.36835 61.495 8.59244C62.0713 8.81654 62.5915 9.11268 63.0557 9.48084C63.5199 9.833 63.8881 10.2732 64.1602 10.8014C64.4323 11.3297 64.5684 11.9779 64.5684 12.7463C64.5684 14.1069 64.2482 15.2114 63.608 16.0598C62.9837 16.9081 62.1193 17.5324 61.0148 17.9326C59.9263 18.3168 58.6858 18.5088 57.2932 18.5088Z" fill="black"/>
<path d="M73.4206 18.5088C71.98 18.5088 70.7234 18.2687 69.6509 17.7885C68.5945 17.2923 67.7701 16.556 67.1779 15.5795C66.5856 14.5871 66.2895 13.3546 66.2895 11.8819C66.2895 10.3932 66.5856 9.1607 67.1779 8.18426C67.7701 7.19182 68.5945 6.4555 69.6509 5.97528C70.7234 5.47906 71.98 5.23095 73.4206 5.23095C74.381 5.23095 75.2854 5.335 76.1338 5.54309C76.9822 5.75118 77.7265 6.07133 78.3668 6.50352C79.0071 6.93571 79.5033 7.49596 79.8555 8.18426C80.2236 8.87257 80.4077 9.69694 80.4077 10.6574H75.7737C75.7737 10.1611 75.6776 9.75296 75.4855 9.43282C75.3095 9.11268 75.0453 8.88057 74.6932 8.73651C74.341 8.57644 73.9168 8.4964 73.4206 8.4964C72.8604 8.4964 72.4042 8.60845 72.052 8.83255C71.7159 9.04064 71.4678 9.35278 71.3077 9.76897C71.1476 10.1691 71.0676 10.6494 71.0676 11.2096V12.5782C71.0676 13.1385 71.1476 13.6187 71.3077 14.0189C71.4838 14.419 71.7479 14.7312 72.1 14.9553C72.4682 15.1634 72.9404 15.2674 73.5167 15.2674C74.0449 15.2674 74.4851 15.1954 74.8372 15.0513C75.2054 14.8912 75.4855 14.6511 75.6776 14.331C75.8697 13.9948 75.9657 13.5707 75.9657 13.0584H80.4077C80.4077 14.0189 80.2236 14.8512 79.8555 15.5555C79.5033 16.2438 79.0071 16.8041 78.3668 17.2363C77.7265 17.6685 76.9822 17.9886 76.1338 18.1967C75.2854 18.4048 74.381 18.5088 73.4206 18.5088Z" fill="black"/>
<path d="M86.6263 18.5088C85.97 18.5088 85.3697 18.4448 84.8255 18.3168C84.2812 18.2047 83.809 18.0126 83.4089 17.7405C83.0087 17.4524 82.6965 17.0842 82.4724 16.636C82.2644 16.1718 82.1603 15.6116 82.1603 14.9553C82.1603 14.0108 82.3524 13.2425 82.7366 12.6502C83.1367 12.058 83.713 11.6018 84.4653 11.2816C85.2177 10.9615 86.1301 10.7454 87.2025 10.6334C88.291 10.5053 89.5316 10.4413 90.9242 10.4413V9.81699C90.9242 9.46483 90.8362 9.18471 90.6601 8.97662C90.5 8.75252 90.2839 8.58444 90.0118 8.47239C89.7397 8.36034 89.4275 8.30432 89.0754 8.30432C88.8033 8.30432 88.5231 8.33633 88.235 8.40036C87.9469 8.46439 87.7068 8.57644 87.5147 8.73651C87.3386 8.89658 87.2506 9.12068 87.2506 9.40881V9.50485H82.5445C82.5285 9.44082 82.5205 9.3848 82.5205 9.33678C82.5205 9.28875 82.5205 9.23273 82.5205 9.1687C82.5205 8.38435 82.7686 7.70405 83.2648 7.1278C83.777 6.53553 84.5214 6.07933 85.4978 5.75919C86.4902 5.42304 87.7068 5.25496 89.1474 5.25496C90.3159 5.25496 91.3964 5.38302 92.3888 5.63913C93.3813 5.89525 94.1816 6.32744 94.7899 6.93571C95.3982 7.52797 95.7023 8.34433 95.7023 9.3848V14.331C95.7023 14.5871 95.7663 14.8112 95.8944 15.0033C96.0225 15.1794 96.2145 15.2674 96.4707 15.2674H97.335V18.0286C97.143 18.1407 96.8228 18.2447 96.3746 18.3408C95.9424 18.4528 95.4302 18.5088 94.8379 18.5088C94.1976 18.5088 93.6374 18.4448 93.1572 18.3168C92.677 18.1887 92.2848 18.0046 91.9807 17.7645C91.6925 17.5244 91.4925 17.2443 91.3804 16.9241H91.2123C90.8762 17.2283 90.484 17.5004 90.0358 17.7405C89.6036 17.9806 89.1074 18.1647 88.5471 18.2927C87.9869 18.4368 87.3466 18.5088 86.6263 18.5088ZM88.5712 15.5315C88.8753 15.5315 89.1634 15.4915 89.4355 15.4115C89.7237 15.3154 89.9798 15.1954 90.2039 15.0513C90.428 14.8912 90.6041 14.7072 90.7321 14.4991C90.8602 14.275 90.9242 14.0349 90.9242 13.7787V12.6983C89.9798 12.6983 89.2114 12.7703 88.6192 12.9144C88.0429 13.0584 87.6187 13.2505 87.3466 13.4906C87.0745 13.7307 86.9384 14.0108 86.9384 14.331C86.9384 14.6511 87.0185 14.8992 87.1785 15.0753C87.3386 15.2514 87.5387 15.3715 87.7788 15.4355C88.0349 15.4995 88.299 15.5315 88.5712 15.5315Z" fill="black"/>
<path d="M98.8955 18.2207V0.812994H103.674V18.2207H98.8955Z" fill="black"/>
<path d="M109.924 18.2207L105.122 5.54309H110.261L111.485 9.64891C111.565 9.87301 111.661 10.2092 111.773 10.6574C111.901 11.1056 112.037 11.5778 112.181 12.074C112.342 12.5702 112.478 13.0264 112.59 13.4426H112.758C112.87 13.0584 112.998 12.6262 113.142 12.146C113.286 11.6498 113.422 11.1776 113.55 10.7294C113.678 10.2812 113.782 9.92103 113.862 9.64891L115.087 5.54309H119.793L114.943 18.2207H109.924Z" fill="black"/>
<path d="M127.796 18.5088C126.356 18.5088 125.099 18.2687 124.027 17.7885C122.97 17.2923 122.146 16.556 121.554 15.5795C120.961 14.5871 120.665 13.3546 120.665 11.8819C120.665 10.3932 120.961 9.1607 121.554 8.18426C122.146 7.20783 122.97 6.47951 124.027 5.9993C125.099 5.50308 126.356 5.25496 127.796 5.25496C129.237 5.25496 130.493 5.50308 131.566 5.9993C132.638 6.47951 133.471 7.20783 134.063 8.18426C134.655 9.1607 134.951 10.3932 134.951 11.8819C134.951 13.3546 134.655 14.5871 134.063 15.5795C133.471 16.556 132.638 17.2923 131.566 17.7885C130.493 18.2687 129.237 18.5088 127.796 18.5088ZM127.796 15.2674C128.357 15.2674 128.813 15.1634 129.165 14.9553C129.517 14.7312 129.773 14.419 129.933 14.0189C130.093 13.6187 130.173 13.1385 130.173 12.5782V11.2096C130.173 10.6494 130.093 10.1691 129.933 9.76897C129.773 9.35278 129.517 9.04064 129.165 8.83255C128.813 8.60845 128.357 8.4964 127.796 8.4964C127.236 8.4964 126.78 8.60845 126.428 8.83255C126.092 9.04064 125.843 9.35278 125.683 9.76897C125.523 10.1691 125.443 10.6494 125.443 11.2096V12.5782C125.443 13.1385 125.523 13.6187 125.683 14.0189C125.843 14.419 126.092 14.7312 126.428 14.9553C126.78 15.1634 127.236 15.2674 127.796 15.2674Z" fill="black"/>
<path d="M137.256 18.2207V5.54309H141.17L141.482 7.46394H141.65C141.986 6.96772 142.379 6.55954 142.827 6.2394C143.275 5.90325 143.771 5.65514 144.315 5.49507C144.86 5.335 145.42 5.25496 145.996 5.25496C147.005 5.25496 147.829 5.44705 148.469 5.83122C149.126 6.19938 149.614 6.73562 149.934 7.43993C150.254 8.14425 150.414 9.00063 150.414 10.0091V18.2207H145.636V10.5853C145.636 10.3132 145.596 10.0731 145.516 9.86501C145.452 9.64091 145.356 9.44882 145.228 9.28875C145.1 9.12868 144.932 9.00863 144.724 8.92859C144.532 8.83255 144.299 8.78453 144.027 8.78453C143.627 8.78453 143.275 8.88057 142.971 9.07266C142.683 9.24874 142.451 9.48884 142.275 9.79298C142.114 10.0811 142.034 10.4093 142.034 10.7774V18.2207H137.256Z" fill="black"/>
<path d="M153.271 4.05443V0.812994H158.049V4.05443H153.271ZM153.271 18.2207V5.54309H158.049V18.2207H153.271Z" fill="black"/>
<path d="M48.2412 44.8989L54.7 28.4276H58.1336L64.6164 44.8989H61.7352L60.2705 41.0812H52.4671L51.0024 44.8989H48.2412ZM53.3314 38.8002H59.3821L57.5333 33.9741C57.4853 33.83 57.4132 33.6299 57.3172 33.3738C57.2212 33.1177 57.1171 32.8376 57.0051 32.5335C56.909 32.2293 56.805 31.9252 56.6929 31.621C56.5969 31.3009 56.5088 31.0128 56.4288 30.7567H56.2847C56.1887 31.0608 56.0687 31.421 55.9246 31.8371C55.7805 32.2533 55.6365 32.6535 55.4924 33.0377C55.3643 33.4218 55.2523 33.734 55.1562 33.9741L53.3314 38.8002Z" fill="black"/>
<path d="M66.4007 44.8989V32.2693H68.4657L68.6817 34.3102H68.8258C68.9699 33.9101 69.154 33.5339 69.3781 33.1817C69.6182 32.8296 69.9223 32.5415 70.2905 32.3174C70.6746 32.0933 71.1388 31.9812 71.6831 31.9812C71.9392 31.9812 72.1633 32.0052 72.3554 32.0532C72.5635 32.1013 72.7235 32.1413 72.8356 32.1733V34.5263H71.9952C71.483 34.5263 71.0268 34.6064 70.6266 34.7664C70.2424 34.9265 69.9143 35.1666 69.6422 35.4868C69.3861 35.7909 69.194 36.1671 69.0659 36.6153C68.9539 37.0635 68.8978 37.5677 68.8978 38.1279V44.8989H66.4007Z" fill="black"/>
<path d="M79.485 45.1871C78.2205 45.1871 77.164 44.955 76.3156 44.4908C75.4673 44.0105 74.827 43.2822 74.3948 42.3058C73.9786 41.3294 73.7705 40.0888 73.7705 38.5841C73.7705 37.0795 73.9866 35.8469 74.4188 34.8865C74.851 33.9101 75.4913 33.1817 76.3396 32.7015C77.204 32.2213 78.2605 31.9812 79.5091 31.9812C80.3734 31.9812 81.1258 32.0933 81.7661 32.3174C82.4063 32.5255 82.9506 32.8456 83.3988 33.2778C83.847 33.694 84.1751 34.2142 84.3832 34.8385C84.6073 35.4628 84.7194 36.1751 84.7194 36.9754H82.1982C82.1982 36.3031 82.1022 35.7509 81.9101 35.3187C81.718 34.8865 81.4219 34.5664 81.0217 34.3583C80.6215 34.1342 80.1013 34.0221 79.461 34.0221C78.7887 34.0221 78.2205 34.1822 77.7563 34.5023C77.2921 34.8065 76.9399 35.2787 76.6998 35.919C76.4597 36.5432 76.3396 37.3676 76.3396 38.3921V38.8002C76.3396 39.7767 76.4517 40.593 76.6758 41.2493C76.9159 41.8896 77.2681 42.3698 77.7323 42.69C78.2125 42.9941 78.8207 43.1462 79.5571 43.1462C80.1974 43.1462 80.7096 43.0341 81.0938 42.81C81.4939 42.5699 81.7901 42.2338 81.9822 41.8016C82.1902 41.3534 82.2943 40.8171 82.2943 40.1929H84.7194C84.7194 40.9452 84.6073 41.6255 84.3832 42.2338C84.1751 42.842 83.847 43.3703 83.3988 43.8185C82.9666 44.2507 82.4223 44.5868 81.7661 44.8269C81.1098 45.067 80.3494 45.1871 79.485 45.1871Z" fill="black"/>
<path d="M87.2459 44.8989V27.5392H89.743V33.782H89.9111C90.2152 33.3978 90.5594 33.0777 90.9436 32.8216C91.3277 32.5495 91.7599 32.3414 92.2401 32.1973C92.7203 32.0532 93.2486 31.9812 93.8248 31.9812C94.6252 31.9812 95.3295 32.1253 95.9378 32.4134C96.5461 32.6855 97.0183 33.1337 97.3544 33.758C97.7066 34.3823 97.8826 35.2226 97.8826 36.2791V44.8989H95.3855V36.6633C95.3855 36.1831 95.3215 35.7829 95.1934 35.4628C95.0814 35.1426 94.9133 34.8865 94.6892 34.6944C94.4651 34.5023 94.201 34.3663 93.8969 34.2862C93.5927 34.2062 93.2566 34.1662 92.8884 34.1662C92.3122 34.1662 91.7839 34.3022 91.3037 34.5744C90.8395 34.8465 90.4634 35.2307 90.1752 35.7269C89.8871 36.2231 89.743 36.8154 89.743 37.5037V44.8989H87.2459Z" fill="black"/>
<path d="M101.01 30.0844V27.5392H103.507V30.0844H101.01ZM101.01 44.8989V32.2693H103.507V44.8989H101.01Z" fill="black"/>
<path d="M109.877 45.1871C109.156 45.1871 108.588 45.051 108.172 44.7789C107.772 44.4908 107.483 44.1306 107.307 43.6984C107.147 43.2502 107.067 42.778 107.067 42.2818V34.3343H105.483V32.2693H107.115L107.572 28.7398H109.564V32.2693H111.845V34.3343H109.564V41.9937C109.564 42.3618 109.644 42.6419 109.804 42.834C109.965 43.0261 110.229 43.1222 110.597 43.1222H111.845V44.8029C111.685 44.8669 111.485 44.923 111.245 44.971C111.021 45.035 110.789 45.083 110.549 45.115C110.309 45.1631 110.085 45.1871 109.877 45.1871Z" fill="black"/>
<path d="M119.281 45.1871C117.985 45.1871 116.896 44.955 116.016 44.4908C115.151 44.0105 114.495 43.2822 114.047 42.3058C113.599 41.3294 113.375 40.0888 113.375 38.5841C113.375 37.0635 113.599 35.8229 114.047 34.8625C114.495 33.8861 115.159 33.1657 116.04 32.7015C116.92 32.2213 118.017 31.9812 119.329 31.9812C120.53 31.9812 121.53 32.2133 122.331 32.6775C123.147 33.1257 123.763 33.814 124.179 34.7424C124.596 35.6708 124.804 36.8394 124.804 38.248V39.2084H115.944C115.976 40.1048 116.112 40.8571 116.352 41.4654C116.592 42.0577 116.952 42.4979 117.432 42.786C117.929 43.0581 118.553 43.1942 119.305 43.1942C119.769 43.1942 120.186 43.1382 120.554 43.0261C120.922 42.8981 121.234 42.722 121.49 42.4979C121.746 42.2578 121.946 41.9776 122.09 41.6575C122.235 41.3214 122.307 40.9452 122.307 40.529H124.756C124.756 41.2813 124.628 41.9456 124.371 42.5219C124.115 43.0981 123.739 43.5864 123.243 43.9865C122.763 44.3707 122.186 44.6668 121.514 44.8749C120.842 45.083 120.098 45.1871 119.281 45.1871ZM115.992 37.3836H122.186C122.186 36.7593 122.114 36.2391 121.97 35.8229C121.842 35.3907 121.65 35.0386 121.394 34.7664C121.138 34.4943 120.834 34.3022 120.482 34.1902C120.13 34.0621 119.729 33.9981 119.281 33.9981C118.609 33.9981 118.033 34.1182 117.552 34.3583C117.088 34.5984 116.728 34.9745 116.472 35.4868C116.216 35.983 116.056 36.6153 115.992 37.3836Z" fill="black"/>
<path d="M132.36 45.1871C131.096 45.1871 130.039 44.955 129.191 44.4908C128.342 44.0105 127.702 43.2822 127.27 42.3058C126.854 41.3294 126.646 40.0888 126.646 38.5841C126.646 37.0795 126.862 35.8469 127.294 34.8865C127.726 33.9101 128.366 33.1817 129.215 32.7015C130.079 32.2213 131.136 31.9812 132.384 31.9812C133.248 31.9812 134.001 32.0933 134.641 32.3174C135.281 32.5255 135.826 32.8456 136.274 33.2778C136.722 33.694 137.05 34.2142 137.258 34.8385C137.482 35.4628 137.594 36.1751 137.594 36.9754H135.073C135.073 36.3031 134.977 35.7509 134.785 35.3187C134.593 34.8865 134.297 34.5664 133.897 34.3583C133.497 34.1342 132.976 34.0221 132.336 34.0221C131.664 34.0221 131.095 34.1822 130.631 34.5023C130.167 34.8065 129.815 35.2787 129.575 35.919C129.335 36.5432 129.215 37.3676 129.215 38.3921V38.8002C129.215 39.7767 129.327 40.593 129.551 41.2493C129.791 41.8896 130.143 42.3698 130.607 42.69C131.088 42.9941 131.696 43.1462 132.432 43.1462C133.072 43.1462 133.585 43.0341 133.969 42.81C134.369 42.5699 134.665 42.2338 134.857 41.8016C135.065 41.3534 135.169 40.8171 135.169 40.1929H137.594C137.594 40.9452 137.482 41.6255 137.258 42.2338C137.05 42.842 136.722 43.3703 136.274 43.8185C135.842 44.2507 135.297 44.5868 134.641 44.8269C133.985 45.067 133.224 45.1871 132.36 45.1871Z" fill="black"/>
<path d="M143.266 45.1871C142.546 45.1871 141.978 45.051 141.562 44.7789C141.161 44.4908 140.873 44.1306 140.697 43.6984C140.537 43.2502 140.457 42.778 140.457 42.2818V34.3343H138.872V32.2693H140.505L140.961 28.7398H142.954V32.2693H145.235V34.3343H142.954V41.9937C142.954 42.3618 143.034 42.6419 143.194 42.834C143.354 43.0261 143.618 43.1222 143.987 43.1222H145.235V44.8029C145.075 44.8669 144.875 44.923 144.635 44.971C144.411 45.035 144.179 45.083 143.939 45.115C143.699 45.1631 143.474 45.1871 143.266 45.1871Z" fill="black"/>
<path d="M151.398 45.1871C150.182 45.1871 149.197 44.8669 148.445 44.2266C147.693 43.5704 147.317 42.4579 147.317 40.8892V32.2693H149.814V40.505C149.814 40.9852 149.87 41.3854 149.982 41.7055C150.11 42.0257 150.286 42.2818 150.51 42.4739C150.734 42.666 150.998 42.802 151.302 42.882C151.607 42.9621 151.943 43.0021 152.311 43.0021C152.887 43.0021 153.407 42.866 153.872 42.5939C154.352 42.3058 154.736 41.9136 155.024 41.4174C155.312 40.9052 155.456 40.3209 155.456 39.6646V32.2693H157.953V44.8989H155.912L155.696 43.0981H155.528C155.224 43.5623 154.864 43.9465 154.448 44.2507C154.032 44.5548 153.567 44.7869 153.055 44.947C152.559 45.107 152.007 45.1871 151.398 45.1871Z" fill="black"/>
<path d="M161.177 44.8989V32.2693H163.242L163.458 34.3102H163.602C163.746 33.9101 163.93 33.5339 164.154 33.1817C164.395 32.8296 164.699 32.5415 165.067 32.3174C165.451 32.0933 165.915 31.9812 166.46 31.9812C166.716 31.9812 166.94 32.0052 167.132 32.0532C167.34 32.1013 167.5 32.1413 167.612 32.1733V34.5263H166.772C166.259 34.5263 165.803 34.6064 165.403 34.7664C165.019 34.9265 164.691 35.1666 164.419 35.4868C164.162 35.7909 163.97 36.1671 163.842 36.6153C163.73 37.0635 163.674 37.5677 163.674 38.1279V44.8989H161.177Z" fill="black"/>
<path d="M174.478 45.1871C173.181 45.1871 172.092 44.955 171.212 44.4908C170.348 44.0105 169.691 43.2822 169.243 42.3058C168.795 41.3294 168.571 40.0888 168.571 38.5841C168.571 37.0635 168.795 35.8229 169.243 34.8625C169.691 33.8861 170.356 33.1657 171.236 32.7015C172.117 32.2213 173.213 31.9812 174.526 31.9812C175.726 31.9812 176.727 32.2133 177.527 32.6775C178.343 33.1257 178.96 33.814 179.376 34.7424C179.792 35.6708 180 36.8394 180 38.248V39.2084H171.14C171.172 40.1048 171.308 40.8571 171.548 41.4654C171.788 42.0577 172.149 42.4979 172.629 42.786C173.125 43.0581 173.749 43.1942 174.502 43.1942C174.966 43.1942 175.382 43.1382 175.75 43.0261C176.118 42.8981 176.43 42.722 176.687 42.4979C176.943 42.2578 177.143 41.9776 177.287 41.6575C177.431 41.3214 177.503 40.9452 177.503 40.529H179.952C179.952 41.2813 179.824 41.9456 179.568 42.5219C179.312 43.0981 178.936 43.5864 178.439 43.9865C177.959 44.3707 177.383 44.6668 176.711 44.8749C176.038 45.083 175.294 45.1871 174.478 45.1871ZM171.188 37.3836H177.383C177.383 36.7593 177.311 36.2391 177.167 35.8229C177.039 35.3907 176.847 35.0386 176.59 34.7664C176.334 34.4943 176.03 34.3022 175.678 34.1902C175.326 34.0621 174.926 33.9981 174.478 33.9981C173.805 33.9981 173.229 34.1182 172.749 34.3583C172.285 34.5984 171.924 34.9745 171.668 35.4868C171.412 35.983 171.252 36.6153 171.188 37.3836Z" fill="black"/>
</svg>
