<svg width="18" height="17" viewBox="0 0 18 17" fill="none" xmlns="http://www.w3.org/2000/svg">
<path d="M3.43101 4.457C4.4248 3.37962 5.92859 2.8335 7.89988 2.8335H8.60821V4.83029L8.03871 4.94433C7.0683 5.13841 6.39326 5.5202 6.03201 6.0805C5.84351 6.38234 5.73661 6.72794 5.72176 7.0835H7.89988C8.08774 7.0835 8.26791 7.15812 8.40075 7.29096C8.53359 7.4238 8.60821 7.60397 8.60821 7.79183V12.7502C8.60821 13.5315 7.97284 14.1668 7.19155 14.1668H2.94155C2.75369 14.1668 2.57352 14.0922 2.44068 13.9594C2.30784 13.8265 2.23321 13.6464 2.23321 13.4585V9.91683L2.23534 7.8492C2.22896 7.77058 2.09438 5.90766 3.43101 4.457ZM14.9832 14.1668H10.7332C10.5454 14.1668 10.3652 14.0922 10.2323 13.9594C10.0995 13.8265 10.0249 13.6464 10.0249 13.4585V9.91683L10.027 7.8492C10.0206 7.77058 9.88605 5.90766 11.2227 4.457C12.2165 3.37962 13.7203 2.8335 15.6915 2.8335H16.3999V4.83029L15.8304 4.94433C14.86 5.13841 14.1849 5.5202 13.8237 6.0805C13.6352 6.38234 13.5283 6.72794 13.5134 7.0835H15.6915C15.8794 7.0835 16.0596 7.15812 16.1924 7.29096C16.3253 7.4238 16.3999 7.60397 16.3999 7.79183V12.7502C16.3999 13.5315 15.7645 14.1668 14.9832 14.1668Z" fill="#0A72AD"/>
</svg>
